<?xml version="1.0" standalone="no"?>
<!DOCTYPE svg PUBLIC "-//W3C//DTD SVG 1.1//EN" "http://www.w3.org/Graphics/SVG/1.1/DTD/svg11.dtd" >
<svg>
<metadata>
Created by FontForge 20090622 at Mon Jan  8 20:55:40 2018
 By deploy user
</metadata>
<defs>
<font id="Abstrecfonttfb" horiz-adv-x="1598" >
  <font-face 
    font-family="Abstrec font tfb"
    font-weight="400"
    font-stretch="normal"
    units-per-em="2048"
    panose-1="2 0 5 0 0 0 0 0 0 0"
    ascent="1638"
    descent="-410"
    x-height="1550"
    cap-height="2336"
    bbox="-52.4503 -790 2416 2352"
    underline-thickness="150"
    underline-position="-142"
    unicode-range="U+0020-U+F002"
  />
<missing-glyph horiz-adv-x="1024" 
 />
    <glyph glyph-name=".notdef" horiz-adv-x="1024" 
 />
    <glyph glyph-name=".null" horiz-adv-x="0" 
 />
    <glyph glyph-name="nonmarkingreturn" horiz-adv-x="508" 
 />
    <glyph glyph-name="space" unicode=" " horiz-adv-x="1394" 
 />
    <glyph glyph-name="space" unicode="&#xa0;" horiz-adv-x="1394" 
 />
    <glyph glyph-name="exclam" unicode="!" horiz-adv-x="672" 
 />
    <glyph glyph-name="quotedbl" unicode="&#x22;" horiz-adv-x="672" 
 />
    <glyph glyph-name="numbersign" unicode="#" horiz-adv-x="1336" 
 />
    <glyph glyph-name="dollar" unicode="$" horiz-adv-x="1014" 
 />
    <glyph glyph-name="percent" unicode="%" horiz-adv-x="1610" 
 />
    <glyph glyph-name="ampersand" unicode="&#x26;" horiz-adv-x="1683" 
 />
    <glyph glyph-name="quotesingle" unicode="'" horiz-adv-x="346" 
 />
    <glyph glyph-name="parenleft" unicode="(" horiz-adv-x="758" 
 />
    <glyph glyph-name="parenright" unicode=")" horiz-adv-x="758" 
 />
    <glyph glyph-name="asterisk" unicode="*" horiz-adv-x="1415" 
d="M586 1776v121q0 78 80 104h24q90 0 100 -104v-115l79 79q56 55 130 17l17 -17q64 -64 -2 -144l-80 -80h112q78 0 104 -80v-24q0 -70 -84 -96h-140l85 -85q55 -56 17 -130l-17 -17q-50 -50 -128 -9l-93 93v-112q0 -78 -80 -104h-24q-90 0 -100 104v112l-82 -82
q-55 -55 -130 -16l-17 16q-63 64 3 145l85 85h-123q-78 0 -104 80v24q0 70 84 96h140l-85 85q-55 56 -17 130l17 17q50 50 128 9z" />
    <glyph glyph-name="plus" unicode="+" horiz-adv-x="1278" 
d="M559 1164q90 0 100 -104v-260h256q78 0 104 -80v-24q0 -70 -84 -96h-276v-260q0 -78 -80 -104h-24q-90 0 -100 104v260h-264q-78 0 -104 80v24q0 70 84 96h284v260q0 78 80 104h24z" />
    <glyph glyph-name="comma" unicode="," horiz-adv-x="557" 
d="M155 323q104 0 148 -128v-40q0 -106 -285 -659h-36q-102 0 98 490q-93 158 -93 181q0 101 112 148q18 8 56 8z" />
    <glyph glyph-name="hyphen" unicode="-" horiz-adv-x="1307" 
d="M953 812q78 0 104 -80v-24q0 -90 -104 -100h-716q-108 13 -108 104q0 71 88 100h736z" />
    <glyph glyph-name="hyphen" unicode="&#xad;" horiz-adv-x="1307" 
d="M953 812q78 0 104 -80v-24q0 -90 -104 -100h-716q-108 13 -108 104q0 71 88 100h736z" />
    <glyph glyph-name="period" unicode="." horiz-adv-x="557" 
d="M165 323q103 0 148 -128v-40q0 -106 -128 -148h-36q-102 0 -144 116q-8 21 -8 44q0 101 112 148q18 8 56 8z" />
    <glyph glyph-name="slash" unicode="/" horiz-adv-x="1413" 
d="M1125 2336q90 0 100 -104q0 -31 -84 -180q0 -9 -380 -800q0 -11 -236 -508q-308 -666 -328 -700q-32 -44 -88 -44q-70 0 -96 84v20q0 33 56 148l960 2028q34 56 96 56z" />
    <glyph glyph-name="zero" unicode="0" 
d="M795 2344q445 0 584 -404q28 -112 28 -200v-1132q0 -294 -216 -484q-152 -124 -400 -124q-433 0 -572 412q-28 98 -28 180v1164q0 268 208 464q165 124 396 124zM395 1748v-1152q0 -64 12 -64l660 1524v4q-104 80 -264 80h-4q-277 0 -368 -216q-36 -95 -36 -176zM527 292
q94 -88 276 -88q270 0 364 224q36 98 36 192v1120q0 24 -8 92q-7 0 -212 -476z" />
    <glyph glyph-name="one" unicode="1" 
d="M801 2340q71 0 100 -88v-2048h336q121 0 148 -40q20 -35 20 -68q0 -70 -84 -96h-1024q-78 0 -104 80v24q0 68 80 96q27 4 44 4h380v1632h-4q-157 -308 -188 -308q-28 -8 -48 -8q-70 0 -96 84v20q0 45 112 228q204 390 256 464q34 24 72 24z" />
    <glyph glyph-name="two" unicode="2" 
d="M759 2340h84q171 0 336 -140q132 -119 200 -376q28 -120 28 -208q0 -37 -108 -188l-812 -1216v-4q602 -4 716 -4v284q13 108 104 108q71 0 100 -88v-400q0 -79 -84 -108h-12q-672 4 -868 4q-30 0 -168 -4q-84 26 -84 96v8q0 48 112 196q4 11 896 1348v8q0 141 -108 336
q-114 148 -292 148q-327 0 -400 -456q0 -164 -112 -164q-70 0 -96 84v28q0 250 164 500q180 208 404 208z" />
    <glyph glyph-name="three" unicode="3" horiz-adv-x="1592" 
d="M1298 2344q108 -11 108 -108q0 -50 -124 -180q0 -9 -356 -436q472 -683 472 -688q8 -16 8 -44v-16q0 -357 -184 -652q-165 -220 -424 -220q-427 0 -572 576q-36 188 -36 316q0 70 84 96h20q100 -20 100 -100q0 -275 132 -528q97 -120 132 -120q56 -36 140 -36
q326 0 400 580q4 59 4 80q-496 706 -496 720q-8 16 -8 44q0 44 84 136l308 376h-700v-96q0 -40 4 -96q-29 -88 -100 -88h-4q-65 0 -96 76q-8 57 -8 80q4 151 4 228q0 71 88 100h1020z" />
    <glyph glyph-name="four" unicode="4" 
d="M293 2340q87 0 100 -120v-836h812v4q-4 757 -4 856q21 92 92 92h12q69 0 96 -72q0 -4 4 -12q4 -864 4 -1324v-688q0 -200 -24 -200q-29 -40 -84 -40q-104 0 -104 148v632q0 151 4 400h-908q-78 0 -104 80v976q0 78 80 104h24z" />
    <glyph glyph-name="five" unicode="5" horiz-adv-x="1603" 
d="M361 2348h888q110 0 140 -40q20 -35 20 -68q0 -70 -84 -96h-928v-416h424q366 0 528 -412q60 -179 60 -428q0 -667 -440 -856q-84 -32 -156 -32l-76 8q-89 0 -452 -4q-92 21 -92 92v12q0 86 116 100h4q69 0 408 4q33 0 108 -8q75 10 172 80q204 182 204 612
q0 483 -260 604q-69 24 -124 24h-524q-78 0 -104 80v636q0 75 72 100q36 8 96 8z" />
    <glyph glyph-name="six" unicode="6" 
d="M1307 2340q90 0 100 -104q0 -71 -136 -136q-189 -133 -348 -272q-253 -246 -312 -348q-3 0 -20 -28h8q144 32 256 32q376 0 508 -312q44 -125 44 -248v-72q0 -540 -344 -772q-143 -80 -252 -80h-24q-134 0 -316 136q-280 238 -280 756q0 678 912 1340q157 108 196 108h8z
M395 884q0 -547 356 -672q38 -8 60 -8q108 0 248 140q144 198 144 512v60q0 364 -348 364q-182 0 -404 -92q-56 -156 -56 -304z" />
    <glyph glyph-name="seven" unicode="7" 
d="M303 2340h1000q78 0 104 -80v-24q0 -44 -80 -192q-624 -1257 -920 -1928q-26 -116 -116 -116q-70 0 -96 84v20q0 65 204 496l744 1536h-748v-176q0 -78 -80 -104h-24q-87 0 -100 120v196q0 111 32 140q40 28 80 28z" />
    <glyph glyph-name="eight" unicode="8" horiz-adv-x="1603" 
d="M769 2284h52q201 0 348 -232q72 -141 72 -292q0 -229 -156 -400v-4q141 -83 220 -236q67 -92 100 -304q4 -56 4 -96q0 -304 -192 -528q-188 -192 -388 -192h-56q-235 0 -436 248q-144 215 -144 444v56q0 295 220 532l100 80q-152 173 -152 396v20q0 207 140 372
q136 136 268 136zM565 1768v-12q0 -196 156 -296q30 -12 76 -20q143 0 220 196q20 76 20 128q0 196 -152 296q-27 16 -84 24q-129 0 -208 -172q-28 -68 -28 -144zM397 740v-32q0 -295 240 -464q88 -40 156 -40h24q176 0 312 216q76 141 76 300q0 293 -220 460
q-88 56 -176 56h-16q-230 0 -364 -304q-32 -113 -32 -192z" />
    <glyph glyph-name="nine" unicode="9" horiz-adv-x="1592" 
d="M796 2344q127 0 308 -120q300 -251 300 -724v-88q0 -311 -260 -684q-71 -110 -292 -328q-369 -326 -536 -396q-5 -4 -28 -4q-70 0 -96 84v20q0 70 92 112q176 112 388 296q263 255 316 352q3 0 20 28q-133 -32 -228 -32h-76q-314 0 -460 284q-56 134 -56 312
q0 671 452 856q101 32 156 32zM392 1448q0 -388 348 -388q176 0 404 92q60 167 60 304q-10 536 -332 664l-76 20q-74 0 -192 -80q-212 -174 -212 -612z" />
    <glyph glyph-name="colon" unicode=":" horiz-adv-x="557" 
d="M165 323q103 0 148 -128v-40q0 -106 -128 -148h-36q-102 0 -144 116q-8 21 -8 44q0 101 112 148q18 8 56 8zM172 1756q103 0 148 -128v-40q0 -106 -128 -148h-36q-102 0 -144 116q-8 21 -8 44q0 101 112 148q18 8 56 8z" />
    <glyph glyph-name="semicolon" unicode=";" horiz-adv-x="557" 
d="M155 323q104 0 148 -128v-40q0 -106 -285 -659h-36q-102 0 98 490q-93 158 -93 181q0 101 112 148q18 8 56 8zM162 1756q104 0 148 -128v-40q0 -106 -128 -148h-36q-102 0 -144 116q-8 21 -8 44q0 101 112 148q18 8 56 8z" />
    <glyph glyph-name="semicolon" unicode="&#x37e;" horiz-adv-x="557" 
d="M155 323q104 0 148 -128v-40q0 -106 -285 -659h-36q-102 0 98 490q-93 158 -93 181q0 101 112 148q18 8 56 8zM162 1756q104 0 148 -128v-40q0 -106 -128 -148h-36q-102 0 -144 116q-8 21 -8 44q0 101 112 148q18 8 56 8z" />
    <glyph glyph-name="less" unicode="&#x3c;" horiz-adv-x="1095" 
d="M695 1469q90 0 100 -104q0 -61 -132 -160l-320 -288q403 -355 436 -392q12 -31 12 -56q0 -70 -84 -96h-20q-52 0 -116 68q-441 389 -472 424q-12 31 -12 56q0 66 128 156q410 370 440 388z" />
    <glyph glyph-name="equal" unicode="=" horiz-adv-x="1014" 
d="M185 1232h720q78 0 104 -80v-24q0 -70 -88 -100h-736q-78 0 -104 80v24q0 90 104 100zM905 808q78 0 104 -80v-24q0 -70 -84 -96h-740q-78 0 -104 80v24q0 70 84 96h740z" />
    <glyph glyph-name="greater" unicode="&#x3e;" horiz-adv-x="1014" 
d="M227 1465q30 -18 440 -388q128 -90 128 -156q0 -25 -12 -56q-31 -35 -472 -424q-64 -68 -116 -68h-20q-84 26 -84 96q0 25 12 56q33 37 436 392l-320 288q-132 99 -132 160q10 104 100 104z" />
    <glyph glyph-name="question" unicode="?" horiz-adv-x="748" 
 />
    <glyph glyph-name="at" unicode="@" horiz-adv-x="2019" 
 />
    <glyph glyph-name="A" unicode="A" 
d="M751 2340h84q315 0 488 -284q84 -154 84 -344v-1604q-13 -108 -104 -108q-70 0 -100 88v980h-812v-964q0 -78 -80 -104h-24q-70 0 -96 84v1676q0 210 164 412q180 168 396 168zM391 1680v-408h812v440q0 267 -200 384q-104 44 -204 44q-280 0 -372 -240q-36 -88 -36 -220
z" />
    <glyph glyph-name="B" unicode="B" 
d="M353 2344h472q403 0 540 -352q44 -118 44 -272q0 -373 -284 -560q284 -195 284 -544q0 -269 -160 -436q-110 -105 -240 -148q-116 -32 -184 -32h-528q-78 0 -104 80q-4 22 -4 36v2108q0 76 64 108q28 12 100 12zM393 2140v-868h380q262 0 384 216q48 111 48 240
q0 300 -216 384q-71 28 -164 28h-432zM393 1068v-868h352q212 0 332 100q128 110 128 316q0 326 -336 436q-65 16 -92 16h-384z" />
    <glyph glyph-name="C" unicode="C" 
d="M755 2340h80q295 0 468 -252q104 -174 104 -332v-16q0 -78 -80 -104h-24q-64 0 -92 72q-23 182 -68 252q-106 180 -344 180q-284 0 -376 -260q-28 -89 -28 -172v-1080q0 -258 192 -380q107 -48 212 -48q346 0 404 364q0 144 108 144q70 0 96 -84v-36q0 -251 -200 -456
q-176 -128 -324 -128q0 -4 -48 -4h-68q-336 0 -508 312q-68 159 -68 308v1088q0 355 272 548q154 84 292 84z" />
    <glyph glyph-name="D" unicode="D" horiz-adv-x="1592" 
d="M356 2344h316q276 0 392 -60q192 -85 288 -272q52 -134 52 -248v-1160q0 -253 -200 -464l-104 -72q-140 -68 -276 -68h-532q-78 0 -104 80v2156q0 75 72 100q36 8 96 8zM392 2140v-1940h336q280 0 368 128q64 57 96 216q8 17 8 64v1148q0 291 -316 372q-79 12 -144 12
h-348z" />
    <glyph glyph-name="E" unicode="E" 
d="M359 2344h888q110 0 140 -40q20 -35 20 -68q0 -70 -84 -96h-928v-868h904q78 0 104 -80v-24q0 -90 -104 -100h-904v-868h904q78 0 104 -80v-24q0 -70 -84 -96h-1024q-78 0 -104 80v2156q0 75 72 100q36 8 96 8z" />
    <glyph glyph-name="F" unicode="F" horiz-adv-x="1603" 
d="M361 2344h888q110 0 140 -40q20 -35 20 -68q0 -70 -84 -96h-928v-868h904q78 0 104 -80v-24q0 -90 -104 -100h-904v-908q0 -110 -40 -140q-35 -20 -68 -20q-70 0 -96 84v2152q0 75 72 100q36 8 96 8z" />
    <glyph glyph-name="G" unicode="G" 
d="M765 2340h80q248 0 424 -208q136 -196 136 -404q0 -70 -84 -96h-20q-64 0 -92 72q-28 171 -60 236q-103 200 -348 200q-300 0 -388 -292q-20 -82 -20 -160v-1048q0 -317 244 -416q58 -16 160 -24q268 0 364 212q44 100 44 220v436h-304v-176q0 -78 -80 -104h-24
q-70 0 -100 88v284q0 84 80 108q5 4 28 4h496q108 -11 108 -108v-520q-5 -452 -352 -600q-105 -44 -228 -44h-60q-324 0 -492 276q-88 141 -88 404v984q0 475 364 636q113 40 212 40z" />
    <glyph glyph-name="H" unicode="H" 
d="M297 2336q70 0 96 -84v-984h812v964q0 78 80 104h24q64 0 92 -72q8 -18 8 -52v-2088q0 -102 -88 -124h-20q-70 0 -96 84v980h-812v-960q0 -78 -80 -104h-24q-70 0 -100 88v2140q11 108 108 108z" />
    <glyph glyph-name="I" unicode="I" horiz-adv-x="504" 
d="M254 2336q85 0 100 -112v-2112q0 -81 -76 -108q-15 -4 -32 -4q-70 0 -96 84v2148q0 78 80 104h24z" />
    <glyph glyph-name="J" unicode="J" horiz-adv-x="1592" 
d="M1296 2344q108 -11 108 -108v-1624q0 -277 -216 -484q-158 -128 -396 -128q-420 0 -568 440q-36 126 -36 220v508q0 78 80 104h24q85 0 100 -112v-492q0 -194 132 -360q102 -104 284 -104q288 0 376 296q16 73 16 120v1520h-396q-108 11 -108 108q0 70 84 96h516z" />
    <glyph glyph-name="K" unicode="K" 
d="M295 2340q71 0 100 -88v-824q13 9 836 880q35 32 80 32q70 0 96 -84v-20q0 -59 -120 -164q-69 -77 -852 -904l956 -1012q12 -31 12 -56q0 -90 -104 -100q-58 0 -152 120l-752 788v-800q-13 -108 -104 -108q-70 0 -100 88v2144q13 108 104 108z" />
    <glyph glyph-name="L" unicode="L" horiz-adv-x="1603" 
d="M299 2340q70 0 96 -84v-2052h908q78 0 104 -80v-24q0 -90 -104 -100h-1000q-108 11 -108 108v2128q0 78 80 104h24z" />
    <glyph glyph-name="M" unicode="M" 
d="M293 2340q101 0 120 -164q384 -1615 384 -1628h4q32 147 408 1728q34 64 100 64q73 0 100 -84v-2140q0 -83 -80 -108q-5 -4 -28 -4q-70 0 -96 84v1276h-4q-20 -104 -308 -1304q-34 -56 -96 -56q-94 0 -112 136q-288 1209 -288 1224h-4v-1256q-13 -108 -104 -108
q-87 0 -100 116v2112q13 112 92 112h12z" />
    <glyph glyph-name="N" unicode="N" 
d="M295 2340q81 0 136 -160q20 -33 768 -1620h4v1672q0 78 80 104h24q90 0 100 -104v-2124q-11 -108 -108 -108q-79 0 -132 156l-772 1628h-4v-1680q0 -78 -80 -104h-24q-70 0 -96 84v2152q0 78 80 104h24z" />
    <glyph glyph-name="O" unicode="O" 
d="M761 2340h76q287 0 460 -240q112 -163 112 -412v-1040q0 -348 -236 -536q-151 -112 -348 -112h-60q-316 0 -492 288q-84 160 -84 372v1024q0 468 372 620q104 36 200 36zM393 1688v-1040q0 -278 192 -396q84 -48 200 -48h40q172 0 280 124q100 128 100 316v1064
q0 270 -200 388q-104 44 -208 44q-291 0 -380 -268q-24 -82 -24 -184z" />
    <glyph glyph-name="P" unicode="P" horiz-adv-x="1592" 
d="M692 2344q305 0 436 -96q164 -86 244 -292q32 -105 32 -192v-84q0 -221 -176 -412q-119 -127 -372 -192q-40 -8 -72 -8h-392v-964q0 -78 -80 -104h-24q-70 0 -100 88v2144q0 100 120 112h384zM392 2140v-868h380q120 0 288 120q144 130 144 332q0 298 -272 392
q-95 24 -180 24h-360z" />
    <glyph glyph-name="Q" unicode="Q" 
d="M751 2338h96q243 0 428 -204q132 -197 132 -380v-1156q0 -232 -168 -432l-76 -68q64 -131 64 -168q0 -70 -88 -100h-20q-81 0 -116 132q-24 35 -24 52q-99 -16 -148 -16h-64q-349 0 -520 340q-56 150 -56 276v1112q0 283 204 480q171 132 356 132zM395 1726v-1112
q0 -186 132 -324q66 -54 124 -68q-68 68 -68 168q28 148 136 148h24q144 0 312 -256h4q84 52 132 232q12 37 12 92v1128q0 136 -84 264q-112 140 -320 140q-291 0 -380 -264q-24 -85 -24 -148zM815 258q-29 -52 -56 -52v-4h100v4q-35 52 -40 52h-4z" />
    <glyph glyph-name="R" unicode="R" horiz-adv-x="1603" 
d="M355 2344h332q276 0 388 -64q336 -156 336 -548q0 -443 -432 -620q-118 -44 -192 -44h-204q0 -8 156 -176q605 -676 660 -744q8 -28 8 -48q0 -90 -104 -100q-58 0 -156 128q-746 834 -752 836v-860q0 -78 -80 -104h-24q-87 0 -100 120v2060q0 107 36 136q31 28 128 28z
M395 2140v-868h380q124 0 292 124q140 129 140 336q0 287 -252 376q-88 32 -208 32h-352z" />
    <glyph glyph-name="S" unicode="S" 
d="M839 2352h156q108 0 324 -4q84 -26 84 -96v-8q0 -69 -72 -96q-4 0 -12 -4q-177 4 -276 4h-196q-180 -19 -260 -60q-196 -106 -196 -352q0 -405 496 -472q520 -161 520 -676q0 -379 -356 -532q-94 -56 -456 -56h-284q-89 0 -112 80q-4 5 -4 28q0 70 84 96h268
q352 0 352 20q170 44 224 124q80 92 80 256q0 340 -352 456q-197 36 -292 80q-126 62 -228 172q-140 177 -140 384v84q0 243 196 420q132 105 316 136q111 16 136 16z" />
    <glyph glyph-name="T" unicode="T" 
d="M1301 2340q78 0 104 -80v-24q0 -87 -120 -100h-384v-2032q0 -78 -80 -104h-24q-70 0 -96 84v2052h-348q-110 0 -140 40q-20 35 -20 68q0 70 84 96h1024z" />
    <glyph glyph-name="U" unicode="U" 
d="M295 2344q87 0 100 -120v-1616q0 -156 120 -304q115 -96 240 -96q0 -4 48 -4q299 0 384 300q16 72 16 132v1596q13 108 104 108q71 0 100 -88v-1628q0 -287 -212 -492q-160 -132 -400 -132q-441 0 -580 440q-24 93 -24 164v1636q0 78 80 104h24z" />
    <glyph glyph-name="V" unicode="V" 
d="M295 2340q95 0 116 -160l384 -1660h8q396 1709 412 1764q38 52 96 52q70 0 96 -84v-20q0 -35 -400 -1732q-92 -401 -124 -464q-36 -36 -84 -36q-101 0 -128 176q-200 807 -480 2060v8q0 65 88 96h16z" />
    <glyph glyph-name="W" unicode="W" 
d="M1311 2340q70 0 96 -84v-2152q0 -78 -80 -104h-24q-91 0 -112 136l-388 1652q-10 0 -52 -208l-368 -1532q-35 -48 -92 -48q-90 0 -100 104v2128q0 78 80 104h24q73 0 100 -84v-1268h4q296 1277 312 1304q35 48 92 48q91 0 108 -128q280 -1171 288 -1220h4v1236
q0 89 80 112q5 4 28 4z" />
    <glyph glyph-name="X" unicode="X" horiz-adv-x="1592" 
d="M294 2340q77 0 124 -136q376 -786 376 -796h4q388 828 424 892q39 40 84 40q70 0 96 -84v-32q0 -32 -264 -568q0 -8 -228 -488q484 -1016 492 -1048v-20q0 -90 -104 -100q-78 0 -124 136q-18 30 -376 792h-4q-15 -40 -416 -880q-36 -48 -88 -48q-70 0 -100 88v20
q0 29 116 264q376 793 376 800q-462 970 -492 1044v20q0 78 80 104h24z" />
    <glyph glyph-name="Y" unicode="Y" 
d="M297 2340q81 0 132 -156q24 -40 368 -776h4q336 723 424 892q36 36 84 36q70 0 96 -84v-20q0 -35 -88 -208q-404 -851 -416 -888v-1032q0 -78 -80 -104h-24q-90 0 -100 104v1032q0 8 -504 1076v24q0 78 80 104h24z" />
    <glyph glyph-name="Z" unicode="Z" horiz-adv-x="1603" 
d="M1283 2344q102 0 124 -88v-20q0 -42 -92 -220l-856 -1812h828q96 0 120 -88v-20q0 -70 -84 -96h-1024q-78 0 -104 80v24q0 39 120 276l832 1760h-848q-78 0 -104 80v24q0 86 116 100h972z" />
    <glyph glyph-name="bracketleft" unicode="[" horiz-adv-x="758" 
 />
    <glyph glyph-name="backslash" unicode="\" horiz-adv-x="1413" 
d="M196 2280l960 -2028q56 -115 56 -148v-20q-26 -84 -96 -84q-56 0 -88 44q-20 34 -328 700q-236 497 -236 508q-380 791 -380 800q-84 149 -84 180q10 104 100 104q62 0 96 -56z" />
    <glyph glyph-name="bracketright" unicode="]" horiz-adv-x="758" 
 />
    <glyph glyph-name="asciicircum" unicode="^" horiz-adv-x="1014" 
 />
    <glyph glyph-name="underscore" unicode="_" horiz-adv-x="1024" 
 />
    <glyph glyph-name="grave" unicode="`" horiz-adv-x="1024" 
 />
    <glyph glyph-name="a" unicode="a" 
d="M819 1552q213 0 420 -156q168 -149 168 -408v-880q-11 -108 -108 -108h-512q-262 0 -456 176q-140 154 -140 336v76q0 204 164 360q185 156 468 156h364v4q0 55 -104 152q-139 92 -348 92h-440q-78 0 -104 80v24q0 70 84 96h544zM391 548q0 -233 236 -316q94 -28 160 -28
h416v696h-380q-299 0 -404 -204q-28 -81 -28 -148z" />
    <glyph glyph-name="b" unicode="b" 
d="M297 2340q70 0 96 -84v-704h444q311 0 484 -260q88 -142 88 -340v-344q0 -292 -128 -408q-17 -32 -92 -84q-184 -116 -380 -116h-512q-78 0 -104 80q-4 16 -4 32v2120q11 108 108 108zM393 1352v-1148h408q168 0 308 108q96 81 96 276v372q0 268 -232 364q-78 28 -244 28
h-336z" />
    <glyph glyph-name="c" unicode="c" 
d="M777 1552h36q239 0 452 -176q0 -4 48 -60q96 -134 96 -296v-16q0 -78 -80 -104h-24q-64 0 -92 72q-12 130 -44 192q-56 107 -232 164q-79 20 -132 20h-16q-157 0 -300 -112q-92 -89 -92 -252q0 -139 -4 -332q0 -303 160 -388q99 -60 220 -60h48q261 0 352 204
q28 56 40 180q34 64 100 64q70 0 96 -84v-36q0 -221 -196 -408q-171 -124 -380 -124h-60q-369 0 -528 320q-56 109 -56 348q4 35 4 60v248q0 389 344 524q136 52 240 52z" />
    <glyph glyph-name="d" unicode="d" horiz-adv-x="1592" 
d="M1308 2340q70 0 96 -84v-2152q0 -78 -80 -104h-540q-250 0 -452 176q-144 149 -144 368v456q0 194 148 376q179 176 420 176h444v676q0 84 80 108q5 4 28 4zM392 988v-444q0 -228 236 -312q101 -28 164 -28h408v1148h-336q-263 0 -352 -92q-120 -118 -120 -272z" />
    <glyph glyph-name="e" unicode="e" 
d="M785 1552h36q206 0 416 -152q172 -163 172 -392q-11 -108 -108 -108h-908v-264q0 -336 228 -404q62 -28 160 -28h40q287 0 368 248q16 61 20 132q34 64 100 64q90 0 100 -104q0 -197 -148 -372q-175 -172 -424 -172h-68q-322 0 -496 260q-84 133 -84 380v24q0 492 24 492
q19 111 144 236q194 160 428 160zM413 1104h776v4q-31 96 -92 136q-39 43 -152 80q-82 24 -136 24h-16q-166 0 -304 -112q-70 -74 -76 -132z" />
    <glyph glyph-name="f" unicode="f" horiz-adv-x="1197" 
d="M816 2340h32q78 0 104 -80v-24q0 -81 -100 -96q-285 0 -380 -468q-24 -135 -24 -236v-332h396q108 -11 108 -108q0 -70 -84 -96h-420v-792q-11 -108 -108 -108q-70 0 -96 84v1356q0 385 184 676q171 224 388 224z" />
    <glyph glyph-name="g" unicode="g" 
d="M783 1550h520q78 0 104 -80v-1388q0 -374 -184 -656q-168 -216 -396 -216h-68q-352 0 -516 284q-52 115 -52 208q0 66 76 96q16 4 28 4q66 0 96 -76q0 -128 112 -236q128 -80 292 -80q300 0 388 472q16 98 16 116h-436q-282 0 -456 212q-116 159 -116 344v448
q0 361 352 500q126 48 240 48zM395 1002v-440q0 -197 160 -304q99 -56 224 -56h424v1148h-344q-368 0 -452 -244q-12 -63 -12 -104z" />
    <glyph glyph-name="h" unicode="h" 
d="M295 2336q71 0 100 -88v-696h424q250 0 448 -176q140 -151 140 -364v-904q0 -78 -80 -104h-24q-73 0 -100 84v920q0 268 -308 332q-74 12 -152 12h-348v-1240q0 -83 -80 -108q-5 -4 -28 -4q-70 0 -96 84v2148q0 78 80 104h24z" />
    <glyph glyph-name="i" unicode="i" horiz-adv-x="504" 
d="M262 1920q103 0 148 -128v-40q0 -106 -128 -148h-36q-102 0 -144 116q-8 21 -8 44q0 101 112 148q18 8 56 8zM258 1548q70 0 96 -84v-1360q0 -78 -80 -104h-24q-86 0 -100 116v1308q0 102 88 124h20z" />
    <glyph glyph-name="j" unicode="j" horiz-adv-x="1002" 
d="M725 1916q113 0 156 -124l4 -40q0 -104 -128 -152h-36q-112 0 -152 128v40q0 97 112 140q16 8 44 8zM729 1548q85 0 100 -112v-1252q0 -555 -240 -816q-156 -156 -336 -156h-32q-78 0 -104 80v24q0 64 72 92q118 12 168 36q122 66 192 248q76 207 76 464v1288
q0 78 80 104h24z" />
    <glyph glyph-name="k" unicode="k" 
d="M299 2336q70 0 96 -84v-1044h4q799 623 856 664q20 12 52 12q90 0 100 -104q0 -63 -132 -148l-464 -364q596 -1135 596 -1148v-20q0 -90 -104 -100q-80 0 -132 144q-9 11 -484 916l-40 80q-14 -6 -252 -196v-840q0 -78 -80 -104h-24q-86 0 -100 116v2096q0 102 88 124h20
z" />
    <glyph glyph-name="l" unicode="l" horiz-adv-x="798" 
d="M405 2336q70 0 96 -84v-2148q0 -78 -80 -104h-24q-85 0 -100 112v2116q11 108 108 108z" />
    <glyph glyph-name="m" unicode="m" horiz-adv-x="2597" 
d="M288 1620q70 0 96 -84v-108q162 124 376 124h64q292 0 472 -232q177 232 476 232h60q360 0 524 -312q56 -135 56 -224q4 -673 4 -792q0 -184 -24 -184q-29 -40 -84 -40q-69 0 -100 88q4 74 4 108v52q0 276 -4 768q0 95 -92 220q-112 112 -284 112h-48q-253 0 -348 -200
q-36 -76 -36 -152v-884q0 -83 -80 -108q-5 -4 -28 -4q-69 0 -100 88q4 86 4 120q0 205 -4 800q0 106 -92 228q-109 112 -292 112h-48q-268 0 -356 -244q-20 -69 -20 -128v-872q0 -78 -80 -104h-24q-85 0 -100 112v1400q11 108 108 108z" />
    <glyph glyph-name="n" unicode="n" 
d="M295 1552q70 0 96 -84v-40q168 124 364 124h84q283 0 456 -220q112 -158 112 -348v-452q0 -95 4 -184q-4 -24 -4 -148v-92q-13 -108 -104 -108q-70 0 -100 88q0 72 4 164q-4 403 -4 736q0 180 -148 296q-111 68 -260 68q-272 0 -368 -208q-36 -82 -36 -204v-836
q0 -78 -80 -104h-24q-70 0 -96 84v148q0 431 -4 1220q0 49 56 88q20 12 52 12z" />
    <glyph glyph-name="o" unicode="o" 
d="M805 1556q437 0 576 -396q28 -84 28 -196v-376q0 -377 -320 -532q-125 -56 -288 -56q-414 0 -560 324q-52 123 -52 264v372q0 385 336 548q124 48 280 48zM393 972v-356q0 -412 404 -412q290 0 376 212q32 77 32 160v388q0 265 -232 364q-92 24 -172 24q-289 0 -376 -220
q-32 -80 -32 -160z" />
    <glyph glyph-name="p" unicode="p" horiz-adv-x="1592" 
d="M294 1554h480q323 0 516 -212q116 -122 116 -408v-276q0 -275 -84 -384q-150 -276 -544 -276h-388v-680q-13 -108 -104 -108q-70 0 -100 88v2148q11 108 108 108zM390 1350v-1148h400q286 0 380 216q32 89 32 180v356q0 253 -152 324q-121 72 -276 72h-384z" />
    <glyph glyph-name="q" unicode="q" 
d="M1409 1446v-2148q-29 -88 -100 -88q-91 0 -104 108v680h-388q-394 0 -544 276q-84 109 -84 384v276q0 286 116 408q193 212 516 212h480q97 0 108 -108zM821 1350q-154 0 -276 -72q-152 -71 -152 -324v-356q0 -91 32 -180q94 -216 380 -216h400v1148h-384z" />
    <glyph glyph-name="r" unicode="r" horiz-adv-x="1197" 
d="M776 1556h156q78 0 104 -80v-24q0 -90 -104 -100h-164q-268 0 -364 -204q-40 -89 -40 -168v-872q-13 -108 -104 -108q-70 0 -100 88v1356q13 108 104 108q66 0 96 -76q4 -12 4 -48q163 128 412 128z" />
    <glyph glyph-name="s" unicode="s" 
d="M923 1556h320q110 0 140 -40q20 -35 20 -68q0 -70 -84 -96h-468q-347 0 -444 -160q-12 -44 -12 -64v-28q0 -158 288 -212q305 -19 412 -60q312 -123 312 -388v-4q0 -335 -480 -428q-87 -8 -120 -8h-512q-78 0 -104 80v24q0 85 112 100h488q247 0 384 136q28 49 28 104
q0 190 -384 228q-301 0 -496 148q-132 122 -132 272v44q0 251 316 372q121 48 416 48z" />
    <glyph glyph-name="t" unicode="t" horiz-adv-x="1191" 
d="M459 2340q90 0 100 -104v-680h108q110 0 140 -40q20 -35 20 -68q0 -70 -84 -96h-184v-428q0 -368 168 -608q101 -104 168 -104l104 -16q64 -33 64 -100q0 -70 -84 -96h-36q-319 0 -496 396q-92 259 -92 540v416h-124q-78 0 -104 80v24q0 87 120 100h108v676
q13 108 96 108h8z" />
    <glyph glyph-name="u" unicode="u" 
d="M295 1552q87 0 100 -120v-840q0 -273 256 -364q84 -24 144 -24h408v1244q0 78 80 104h24q90 0 100 -104v-1340q-11 -108 -108 -108h-512q-249 0 -452 188q-68 92 -68 96q-76 138 -76 296v868q0 78 80 104h24z" />
    <glyph glyph-name="v" unicode="v" 
d="M297 1552q87 0 132 -176q364 -960 368 -984h4q404 1090 420 1116q38 40 88 40q70 0 96 -84v-20q0 -35 -208 -572q-284 -768 -312 -828q-32 -44 -88 -44q-89 0 -128 160q-476 1257 -476 1276v12q0 78 80 104h24z" />
    <glyph glyph-name="w" unicode="w" 
d="M295 1552q71 0 100 -88v-960q8 3 272 476q65 120 116 120h20q74 0 116 -104l280 -500h4v940q13 112 92 112h12q90 0 100 -104v-1340q0 -78 -80 -104h-24q-75 0 -132 136q-337 589 -368 656h-8l-420 -752q-39 -40 -84 -40q-70 0 -100 88v1360q0 78 80 104h24z" />
    <glyph glyph-name="x" unicode="x" horiz-adv-x="1592" 
d="M294 1552q65 0 152 -140q349 -464 352 -464q408 552 440 584q35 20 68 20q70 0 96 -84v-20q0 -51 -140 -216l-336 -456q468 -627 468 -632q8 -16 8 -44q0 -90 -104 -100q-65 0 -152 140q-349 464 -352 464q-423 -567 -440 -580q-32 -24 -68 -24q-70 0 -96 84v20
q0 54 108 176q9 17 368 496q-449 601 -468 632q-8 16 -8 44q0 90 104 100z" />
    <glyph glyph-name="y" unicode="y" 
d="M295 1550q71 0 100 -88v-904q0 -185 164 -304q107 -52 224 -52h420v1232q13 112 92 112h12q90 0 100 -104v-1348q0 -346 -160 -628q-173 -256 -420 -256h-72q-339 0 -500 204q-64 91 -64 176q0 70 84 96h20q69 0 96 -72q0 -110 176 -172q93 -28 192 -28h52q313 0 388 584
h-428q-330 0 -500 268q-80 142 -80 292v888q0 78 80 104h24z" />
    <glyph glyph-name="z" unicode="z" horiz-adv-x="1603" 
d="M1247 1556q110 0 140 -40q20 -35 20 -68q0 -51 -96 -160q-12 -20 -808 -1080v-4h792q81 0 108 -76q4 -15 4 -32q0 -70 -84 -96h-1024q-78 0 -104 80v24q0 52 112 180l796 1068h-804q-78 0 -104 80v24q0 87 120 100h932z" />
    <glyph glyph-name="braceleft" unicode="{" horiz-adv-x="1014" 
 />
    <glyph glyph-name="bar" unicode="|" horiz-adv-x="1014" 
 />
    <glyph glyph-name="braceright" unicode="}" horiz-adv-x="1014" 
 />
    <glyph glyph-name="asciitilde" unicode="~" horiz-adv-x="1014" 
 />
    <glyph glyph-name="exclamdown" unicode="&#xa1;" horiz-adv-x="672" 
 />
    <glyph glyph-name="cent" unicode="&#xa2;" horiz-adv-x="1139" 
 />
    <glyph glyph-name="sterling" unicode="&#xa3;" horiz-adv-x="1014" 
 />
    <glyph glyph-name="currency" unicode="&#xa4;" horiz-adv-x="1014" 
 />
    <glyph glyph-name="yen" unicode="&#xa5;" horiz-adv-x="1262" 
 />
    <glyph glyph-name="brokenbar" unicode="&#xa6;" horiz-adv-x="1014" 
 />
    <glyph glyph-name="section" unicode="&#xa7;" horiz-adv-x="1014" 
 />
    <glyph glyph-name="dieresis" unicode="&#xa8;" horiz-adv-x="1024" 
 />
    <glyph glyph-name="copyright" unicode="&#xa9;" horiz-adv-x="1674" 
 />
    <glyph glyph-name="ordfeminine" unicode="&#xaa;" horiz-adv-x="648" 
 />
    <glyph glyph-name="guillemotleft" unicode="&#xab;" horiz-adv-x="944" 
 />
    <glyph glyph-name="logicalnot" unicode="&#xac;" horiz-adv-x="1014" 
 />
    <glyph glyph-name="registered" unicode="&#xae;" horiz-adv-x="1674" 
 />
    <glyph glyph-name="macron" unicode="&#xaf;" horiz-adv-x="670" 
 />
    <glyph glyph-name="degree" unicode="&#xb0;" horiz-adv-x="674" 
 />
    <glyph glyph-name="plusminus" unicode="&#xb1;" horiz-adv-x="1014" 
 />
    <glyph glyph-name="uni00B2" unicode="&#xb2;" horiz-adv-x="1014" 
 />
    <glyph glyph-name="uni00B3" unicode="&#xb3;" horiz-adv-x="1014" 
 />
    <glyph glyph-name="acute" unicode="&#xb4;" horiz-adv-x="1024" 
 />
    <glyph glyph-name="mu" unicode="&#xb5;" horiz-adv-x="1180" 
 />
    <glyph glyph-name="paragraph" unicode="&#xb6;" horiz-adv-x="1024" 
 />
    <glyph glyph-name="periodcentered" unicode="&#xb7;" horiz-adv-x="508" 
 />
    <glyph glyph-name="periodcentered" unicode="&#x2219;" horiz-adv-x="508" 
 />
    <glyph glyph-name="cedilla" unicode="&#xb8;" horiz-adv-x="1024" 
 />
    <glyph glyph-name="uni00B9" unicode="&#xb9;" horiz-adv-x="1014" 
 />
    <glyph glyph-name="ordmasculine" unicode="&#xba;" horiz-adv-x="718" 
 />
    <glyph glyph-name="guillemotright" unicode="&#xbb;" horiz-adv-x="944" 
 />
    <glyph glyph-name="onequarter" unicode="&#xbc;" horiz-adv-x="1708" 
 />
    <glyph glyph-name="onehalf" unicode="&#xbd;" horiz-adv-x="1964" 
 />
    <glyph glyph-name="threequarters" unicode="&#xbe;" horiz-adv-x="1708" 
 />
    <glyph glyph-name="questiondown" unicode="&#xbf;" horiz-adv-x="748" 
 />
    <glyph glyph-name="Agrave" unicode="&#xc0;" horiz-adv-x="1540" 
 />
    <glyph glyph-name="Aacute" unicode="&#xc1;" horiz-adv-x="1540" 
 />
    <glyph glyph-name="Acircumflex" unicode="&#xc2;" horiz-adv-x="1540" 
 />
    <glyph glyph-name="Atilde" unicode="&#xc3;" horiz-adv-x="1540" 
 />
    <glyph glyph-name="Adieresis" unicode="&#xc4;" horiz-adv-x="1540" 
 />
    <glyph glyph-name="Aring" unicode="&#xc5;" horiz-adv-x="1540" 
 />
    <glyph glyph-name="AE" unicode="&#xc6;" horiz-adv-x="2118" 
 />
    <glyph glyph-name="Ccedilla" unicode="&#xc7;" horiz-adv-x="1399" 
 />
    <glyph glyph-name="Egrave" unicode="&#xc8;" horiz-adv-x="1151" 
 />
    <glyph glyph-name="Eacute" unicode="&#xc9;" horiz-adv-x="1151" 
 />
    <glyph glyph-name="Ecircumflex" unicode="&#xca;" horiz-adv-x="1151" 
 />
    <glyph glyph-name="Edieresis" unicode="&#xcb;" horiz-adv-x="1151" 
 />
    <glyph glyph-name="Igrave" unicode="&#xcc;" horiz-adv-x="657" 
 />
    <glyph glyph-name="Iacute" unicode="&#xcd;" horiz-adv-x="657" 
 />
    <glyph glyph-name="Icircumflex" unicode="&#xce;" horiz-adv-x="657" 
 />
    <glyph glyph-name="Idieresis" unicode="&#xcf;" horiz-adv-x="657" 
 />
    <glyph glyph-name="Eth" unicode="&#xd0;" horiz-adv-x="1518" 
 />
    <glyph glyph-name="Ntilde" unicode="&#xd1;" horiz-adv-x="1554" 
 />
    <glyph glyph-name="Ograve" unicode="&#xd2;" horiz-adv-x="1614" 
 />
    <glyph glyph-name="Oacute" unicode="&#xd3;" horiz-adv-x="1614" 
 />
    <glyph glyph-name="Ocircumflex" unicode="&#xd4;" horiz-adv-x="1614" 
 />
    <glyph glyph-name="Otilde" unicode="&#xd5;" horiz-adv-x="1614" 
 />
    <glyph glyph-name="Odieresis" unicode="&#xd6;" horiz-adv-x="1614" 
 />
    <glyph glyph-name="multiply" unicode="&#xd7;" horiz-adv-x="1014" 
 />
    <glyph glyph-name="Oslash" unicode="&#xd8;" horiz-adv-x="1614" 
 />
    <glyph glyph-name="Ugrave" unicode="&#xd9;" horiz-adv-x="1501" 
 />
    <glyph glyph-name="Uacute" unicode="&#xda;" horiz-adv-x="1501" 
 />
    <glyph glyph-name="Ucircumflex" unicode="&#xdb;" horiz-adv-x="1501" 
 />
    <glyph glyph-name="Udieresis" unicode="&#xdc;" horiz-adv-x="1501" 
 />
    <glyph glyph-name="Yacute" unicode="&#xdd;" horiz-adv-x="1233" 
 />
    <glyph glyph-name="Thorn" unicode="&#xde;" horiz-adv-x="1120" 
 />
    <glyph glyph-name="germandbls" unicode="&#xdf;" horiz-adv-x="1251" 
 />
    <glyph glyph-name="agrave" unicode="&#xe0;" horiz-adv-x="922" 
 />
    <glyph glyph-name="aacute" unicode="&#xe1;" horiz-adv-x="922" 
 />
    <glyph glyph-name="acircumflex" unicode="&#xe2;" horiz-adv-x="922" 
 />
    <glyph glyph-name="atilde" unicode="&#xe3;" horiz-adv-x="922" 
 />
    <glyph glyph-name="adieresis" unicode="&#xe4;" horiz-adv-x="922" 
 />
    <glyph glyph-name="aring" unicode="&#xe5;" horiz-adv-x="922" 
 />
    <glyph glyph-name="ae" unicode="&#xe6;" horiz-adv-x="1454" 
 />
    <glyph glyph-name="ccedilla" unicode="&#xe7;" horiz-adv-x="905" 
 />
    <glyph glyph-name="egrave" unicode="&#xe8;" horiz-adv-x="909" 
 />
    <glyph glyph-name="eacute" unicode="&#xe9;" horiz-adv-x="909" 
 />
    <glyph glyph-name="ecircumflex" unicode="&#xea;" horiz-adv-x="909" 
 />
    <glyph glyph-name="edieresis" unicode="&#xeb;" horiz-adv-x="909" 
 />
    <glyph glyph-name="igrave" unicode="&#xec;" horiz-adv-x="514" 
 />
    <glyph glyph-name="iacute" unicode="&#xed;" horiz-adv-x="514" 
 />
    <glyph glyph-name="icircumflex" unicode="&#xee;" horiz-adv-x="514" 
 />
    <glyph glyph-name="idieresis" unicode="&#xef;" horiz-adv-x="514" 
 />
    <glyph glyph-name="eth" unicode="&#xf0;" horiz-adv-x="1139" 
 />
    <glyph glyph-name="ntilde" unicode="&#xf1;" horiz-adv-x="1108" 
 />
    <glyph glyph-name="ograve" unicode="&#xf2;" horiz-adv-x="1010" 
 />
    <glyph glyph-name="oacute" unicode="&#xf3;" horiz-adv-x="1010" 
 />
    <glyph glyph-name="ocircumflex" unicode="&#xf4;" horiz-adv-x="1010" 
 />
    <glyph glyph-name="otilde" unicode="&#xf5;" horiz-adv-x="1010" 
 />
    <glyph glyph-name="odieresis" unicode="&#xf6;" horiz-adv-x="1010" 
 />
    <glyph glyph-name="divide" unicode="&#xf7;" horiz-adv-x="1014" 
 />
    <glyph glyph-name="oslash" unicode="&#xf8;" horiz-adv-x="1010" 
 />
    <glyph glyph-name="ugrave" unicode="&#xf9;" horiz-adv-x="1059" 
 />
    <glyph glyph-name="uacute" unicode="&#xfa;" horiz-adv-x="1059" 
 />
    <glyph glyph-name="ucircumflex" unicode="&#xfb;" horiz-adv-x="1059" 
 />
    <glyph glyph-name="udieresis" unicode="&#xfc;" horiz-adv-x="1059" 
 />
    <glyph glyph-name="yacute" unicode="&#xfd;" horiz-adv-x="868" 
 />
    <glyph glyph-name="thorn" unicode="&#xfe;" horiz-adv-x="1010" 
 />
    <glyph glyph-name="ydieresis" unicode="&#xff;" horiz-adv-x="868" 
 />
    <glyph glyph-name="dotlessi" unicode="&#x131;" horiz-adv-x="514" 
 />
    <glyph glyph-name="circumflex" unicode="&#x2c6;" horiz-adv-x="1024" 
 />
    <glyph glyph-name="caron" unicode="&#x2c7;" horiz-adv-x="1024" 
 />
    <glyph glyph-name="uni02C9" unicode="&#x2c9;" horiz-adv-x="1024" 
 />
    <glyph glyph-name="breve" unicode="&#x2d8;" horiz-adv-x="1024" 
 />
    <glyph glyph-name="dotaccent" unicode="&#x2d9;" horiz-adv-x="1024" 
 />
    <glyph glyph-name="ring" unicode="&#x2da;" horiz-adv-x="1024" 
 />
    <glyph glyph-name="ogonek" unicode="&#x2db;" horiz-adv-x="1024" 
 />
    <glyph glyph-name="tilde" unicode="&#x2dc;" horiz-adv-x="1024" 
 />
    <glyph glyph-name="hungarumlaut" unicode="&#x2dd;" horiz-adv-x="1024" 
 />
    <glyph glyph-name="endash" unicode="&#x2013;" horiz-adv-x="1108" 
 />
    <glyph glyph-name="emdash" unicode="&#x2014;" horiz-adv-x="2048" 
 />
    <glyph glyph-name="quoteleft" unicode="&#x2018;" horiz-adv-x="557" 
 />
    <glyph glyph-name="quoteright" unicode="&#x2019;" horiz-adv-x="557" 
 />
    <glyph glyph-name="quotesinglbase" unicode="&#x201a;" horiz-adv-x="557" 
 />
    <glyph glyph-name="quotedblleft" unicode="&#x201c;" horiz-adv-x="910" 
 />
    <glyph glyph-name="quotedblright" unicode="&#x201d;" horiz-adv-x="910" 
 />
    <glyph glyph-name="quotedblbase" unicode="&#x201e;" horiz-adv-x="910" 
 />
    <glyph glyph-name="dagger" unicode="&#x2020;" horiz-adv-x="1014" 
 />
    <glyph glyph-name="daggerdbl" unicode="&#x2021;" horiz-adv-x="1014" 
 />
    <glyph glyph-name="bullet" unicode="&#x2022;" horiz-adv-x="1024" 
 />
    <glyph glyph-name="ellipsis" unicode="&#x2026;" horiz-adv-x="2048" 
 />
    <glyph glyph-name="guilsinglleft" unicode="&#x2039;" horiz-adv-x="631" 
 />
    <glyph glyph-name="guilsinglright" unicode="&#x203a;" horiz-adv-x="631" 
 />
    <glyph glyph-name="fraction" unicode="&#x2044;" horiz-adv-x="342" 
 />
    <glyph glyph-name="fraction" unicode="&#x2215;" horiz-adv-x="342" 
 />
    <glyph glyph-name="franc" unicode="&#x20a3;" horiz-adv-x="1014" 
 />
    <glyph glyph-name="lira" unicode="&#x20a4;" horiz-adv-x="1014" 
 />
    <glyph glyph-name="peseta" unicode="&#x20a7;" horiz-adv-x="2028" 
 />
    <glyph glyph-name="Euro" unicode="&#x20ac;" horiz-adv-x="1014" 
 />
    <glyph glyph-name="afii61352" unicode="&#x2116;" horiz-adv-x="2271" 
 />
    <glyph glyph-name="trademark" unicode="&#x2122;" horiz-adv-x="1497" 
 />
    <glyph glyph-name="partialdiff" unicode="&#x2202;" horiz-adv-x="1014" 
 />
    <glyph glyph-name="Delta" unicode="&#x2206;" horiz-adv-x="1081" 
 />
    <glyph glyph-name="product" unicode="&#x220f;" horiz-adv-x="1515" 
 />
    <glyph glyph-name="summation" unicode="&#x2211;" horiz-adv-x="1206" 
 />
    <glyph glyph-name="minus" unicode="&#x2212;" horiz-adv-x="1014" 
 />
    <glyph glyph-name="radical" unicode="&#x221a;" horiz-adv-x="1014" 
 />
    <glyph glyph-name="infinity" unicode="&#x221e;" horiz-adv-x="1014" 
 />
    <glyph glyph-name="integral" unicode="&#x222b;" horiz-adv-x="665" 
 />
    <glyph glyph-name="approxequal" unicode="&#x2248;" horiz-adv-x="1014" 
 />
    <glyph glyph-name="lessequal" unicode="&#x2264;" horiz-adv-x="1014" 
 />
    <glyph glyph-name="greaterequal" unicode="&#x2265;" horiz-adv-x="1014" 
 />
    <glyph glyph-name="uniF001" unicode="&#xf001;" horiz-adv-x="1073" 
 />
    <glyph glyph-name="uniF001" unicode="&#xfb01;" horiz-adv-x="1073" 
 />
    <glyph glyph-name="uniF002" unicode="&#xf002;" horiz-adv-x="1081" 
 />
    <glyph glyph-name="uniF002" unicode="&#xfb02;" horiz-adv-x="1081" 
 />
  </font>
</defs>
</svg>
